<svg xmlns="http://www.w3.org/2000/svg" viewBox="0 0 36 36" id="circleci"><path fill="#EFEFEF" d="M34.904 20.355c-3.782-5.791-3.38-11.727-5.203-14.518-1.823-2.791-7.256-7.603-20.093.782s-9.572 17.5-7.566 20.569c9.388 14.372 39.561 3.423 32.862-6.833z"></path><path fill="#A4AFC1" d="M19.955 3.5h2v1h-2zM14.205 3.5h2v1h-2zM17.705 0h1v2h-1zM6.75 30.75c-.827 0-1.5-.673-1.5-1.5s.673-1.5 1.5-1.5 1.5.673 1.5 1.5-.673 1.5-1.5 1.5zm0-2a.5.5 0 1 0 0 1 .5.5 0 0 0 0-1z"></path><path fill="#F3F3F1" d="M12.39 20.456a.565.565 0 0 0-.492-.315h-4.6a.544.544 0 0 0-.547.54c0 .035.013.068.013.112 1.257 4.856 5.73 8.456 11.064 8.456 6.305 0 11.422-5.039 11.422-11.25 0-6.209-5.117-11.25-11.422-11.25-5.333 0-9.8 3.6-11.068 8.461-.01.034-.01.066-.01.112 0 .293.24.54.547.54h4.602a.526.526 0 0 0 .492-.312 6.004 6.004 0 0 1 5.437-3.442c3.299 0 5.984 2.644 5.984 5.894 0 3.253-2.684 5.897-5.987 5.897a5.98 5.98 0 0 1-5.435-3.443z"></path><path fill="#2FDF84" d="M20.732 17.63a3 3 0 0 0-3.345-2.607 3.007 3.007 0 0 0-2.619 3.346 3.003 3.003 0 0 0 3.344 2.608 3.018 3.018 0 0 0 2.62-3.347z"></path><path fill="#D5DBE1" d="M18.975 23.788c.358.066.723.112 1.1.112 3.303 0 5.987-2.644 5.987-5.897 0-3.25-2.684-5.894-5.984-5.894-.377 0-.741.046-1.098.112 2.75.531 4.832 2.92 4.832 5.782 0 2.865-2.083 5.255-4.837 5.785zm-9.962-2.994c0-.045-.013-.078-.013-.113 0-.303.25-.54.547-.54h-2.25a.544.544 0 0 0-.547.54c0 .035.013.068.013.112 1.257 4.856 5.73 8.456 11.064 8.456.385 0 .766-.02 1.141-.057-4.836-.458-8.786-3.883-9.955-8.398zm-1.716-4.931h2.25a.543.543 0 0 1-.547-.54c0-.047 0-.079.01-.112 1.179-4.519 5.125-7.945 9.959-8.404a11.638 11.638 0 0 0-1.141-.057c-5.333 0-9.8 3.6-11.068 8.461-.01.034-.01.066-.01.112 0 .294.24.54.547.54z"></path><path fill="#00B871" d="M17.018 18.369a2.998 2.998 0 0 1 1.859-3.136 2.963 2.963 0 0 0-1.49-.21 3.007 3.007 0 0 0-2.619 3.346 3.002 3.002 0 0 0 3.344 2.608c.269-.033.52-.113.76-.211-.974-.397-1.719-1.283-1.854-2.397z"></path><path d="M17.828 30c-5.568 0-10.417-3.708-11.791-9.018a.751.751 0 0 1-.024-.188h-.001c-.006 0-.012-.056-.012-.113 0-.711.582-1.29 1.297-1.29h4.6a1.308 1.308 0 0 1 1.173.748c.851 1.828 2.717 3.01 4.755 3.01 2.888 0 5.237-2.309 5.237-5.146 0-2.836-2.348-5.144-5.233-5.144a5.27 5.27 0 0 0-4.758 3.011c-.185.441-.649.744-1.171.744H7.297A1.296 1.296 0 0 1 6 15.323c0-.074 0-.185.04-.321C7.419 9.71 12.269 6 17.828 6 24.54 6 30 11.383 30 18s-5.46 12-12.172 12zM7.567 20.891c1.299 4.495 5.476 7.609 10.26 7.609C23.712 28.5 28.5 23.79 28.5 18S23.712 7.5 17.828 7.5c-4.775 0-8.953 3.116-10.263 7.613h4.207a6.783 6.783 0 0 1 6.057-3.754c3.713 0 6.733 2.98 6.733 6.644 0 3.665-3.022 6.646-6.737 6.646-2.574 0-4.938-1.471-6.059-3.758H7.567zm4.142-5.65a.39.39 0 0 0-.009.02l.009-.02z"></path><path d="M17.738 21.75a3.721 3.721 0 0 1-2.302-.797 3.716 3.716 0 0 1-1.413-2.494 3.763 3.763 0 0 1 3.271-4.181 3.712 3.712 0 0 1 2.771.769 3.709 3.709 0 0 1 1.411 2.493 3.763 3.763 0 0 1-3.738 4.21zm.02-6a2.26 2.26 0 0 0-2.246 2.528c.072.592.373 1.123.847 1.493a2.241 2.241 0 0 0 1.66.462 2.263 2.263 0 0 0 1.968-2.512 2.222 2.222 0 0 0-.846-1.491 2.234 2.234 0 0 0-1.383-.48z"></path></svg>